<svg width="31" height="25" viewBox="0 0 31 25" fill="none" xmlns="http://www.w3.org/2000/svg">
<path d="M21.0537 9.90002L17.1061 6.00003H11.8427C11.4937 6.00003 11.159 6.13699 10.9122 6.38079C10.6655 6.62459 10.5268 6.95525 10.5268 7.30003V17.7C10.5268 18.0448 10.6655 18.3754 10.9122 18.6192C11.159 18.863 11.4937 19 11.8427 19H19.7378C20.0868 19 20.4215 18.863 20.6683 18.6192C20.9151 18.3754 21.0537 18.0448 21.0537 17.7V9.90002ZM13.8165 17.05H12.5006V11.2H13.8165V17.05ZM16.4482 17.05H15.1323V13.15H16.4482V17.05ZM19.0799 17.05H17.7641V15.1H19.0799V17.05ZM17.1061 10.55H16.4482V7.30003L19.7378 10.55H17.1061Z" fill="#070707"/>
</svg>
