<svg width="21" height="22" viewBox="0 0 21 22" fill="none" xmlns="http://www.w3.org/2000/svg">
<path d="M18.8392 18.7635L14.7319 14.4615C15.9224 12.9642 16.516 11.0438 16.3893 9.09965C16.2626 7.15552 15.4254 5.33741 14.0517 4.02352C12.678 2.70964 10.8737 2.00114 9.01412 2.04541C7.15452 2.08969 5.3828 2.88333 4.06753 4.26123C2.75226 5.63914 1.99469 7.49522 1.95243 9.44337C1.91017 11.3915 2.58646 13.2817 3.84062 14.7208C5.09479 16.1599 6.83026 17.037 8.68601 17.1698C10.5418 17.3025 12.3749 16.6806 13.8042 15.4335L17.9106 19.7364C17.9716 19.8002 18.044 19.8509 18.1237 19.8855C18.2033 19.92 18.2887 19.9378 18.3749 19.9378C18.4612 19.9378 18.5466 19.92 18.6262 19.8855C18.7059 19.8509 18.7783 19.8002 18.8392 19.7364C18.9002 19.6725 18.9486 19.5967 18.9816 19.5132C19.0146 19.4297 19.0316 19.3403 19.0316 19.25C19.0316 19.1596 19.0146 19.0702 18.9816 18.9867C18.9486 18.9033 18.9002 18.8274 18.8392 18.7635ZM3.28119 9.62495C3.28119 8.40118 3.62759 7.20489 4.27658 6.18736C4.92556 5.16983 5.84799 4.37676 6.92722 3.90845C8.00644 3.44013 9.19399 3.3176 10.3397 3.55634C11.4854 3.79509 12.5378 4.38439 13.3638 5.24973C14.1898 6.11507 14.7523 7.21757 14.9802 8.41783C15.2081 9.61809 15.0911 10.8622 14.6441 11.9928C14.1971 13.1234 13.4401 14.0898 12.4688 14.7697C11.4975 15.4496 10.3556 15.8125 9.18744 15.8125C7.62154 15.8106 6.12027 15.1582 5.01301 13.9982C3.90575 12.8382 3.28293 11.2654 3.28119 9.62495Z" fill="black"/>
</svg>
