<svg width="31" height="25" viewBox="0 0 31 25" fill="none" xmlns="http://www.w3.org/2000/svg">
<path d="M15.264 13C14.3232 13 13.5177 12.7063 12.8478 12.1188C12.1778 11.5313 11.8428 10.825 11.8428 10C11.8428 9.17503 12.1778 8.46878 12.8478 7.88128C13.5177 7.29378 14.3232 7.00003 15.264 7.00003C16.2048 7.00003 17.0103 7.29378 17.6802 7.88128C18.3502 8.46878 18.6852 9.17503 18.6852 10C18.6852 10.825 18.3502 11.5313 17.6802 12.1188C17.0103 12.7063 16.2048 13 15.264 13ZM8.42154 19V16.9C8.42154 16.475 8.54642 16.0843 8.79617 15.7278C9.04592 15.3713 9.37721 15.0995 9.79003 14.9125C10.6739 14.525 11.5719 14.2343 12.4843 14.0403C13.3966 13.8463 14.3232 13.7495 15.264 13.75C16.2048 13.75 17.1314 13.847 18.0437 14.041C18.9561 14.235 19.8541 14.5255 20.738 14.9125C21.1514 15.1 21.4829 15.372 21.7327 15.7285C21.9824 16.085 22.107 16.4755 22.1065 16.9V19H8.42154Z" fill="white"/>
</svg>
