<svg width="31" height="25" viewBox="0 0 31 25" fill="none" xmlns="http://www.w3.org/2000/svg">
<g clip-path="url(#clip0_1_146)">
<path d="M22.1065 10L19.2993 11.3333M19.2993 11.3333L18.9484 11.5L15.7903 13M19.2993 11.3333V13.6667M19.2993 11.3333L12.6323 8.00001M15.7903 13L9.47422 10M15.7903 13V19.3333M18.3014 7.25467L19.7049 7.95467C21.2145 8.70734 21.9696 9.08334 22.3893 9.76001C22.8083 10.436 22.8083 11.278 22.8083 12.96V13.038C22.8083 14.7213 22.8083 15.5633 22.3893 16.2393C21.9696 16.916 21.2145 17.2927 19.7049 18.0453L18.3014 18.7447C17.069 19.3593 16.4528 19.6667 15.7903 19.6667C15.1279 19.6667 14.5117 19.36 13.2793 18.7453L11.8758 18.0453C10.3662 17.2927 9.61107 16.9167 9.1914 16.24C8.77243 15.564 8.77243 14.722 8.77243 13.04V12.962C8.77243 11.2787 8.77243 10.4367 9.1914 9.76067C9.61107 9.08401 10.3662 8.70734 11.8758 7.95534L13.2793 7.25534C14.5117 6.64067 15.1279 6.33334 15.7903 6.33334C16.4528 6.33334 17.069 6.64001 18.3014 7.25467Z" stroke="black" stroke-width="1.5" stroke-linecap="round"/>
</g>
<defs>
<clipPath id="clip0_1_146">
<rect width="16.6188" height="15.787" fill="white" transform="translate(7.36885 5.00001) scale(1.01349)"/>
</clipPath>
</defs>
</svg>
