<svg width="31" height="25" viewBox="0 0 31 25" fill="none" xmlns="http://www.w3.org/2000/svg">
<g clip-path="url(#clip0_1_43)">
<path d="M22.1064 9.99998L19.2993 11.3333M19.2993 11.3333L18.9484 11.5L15.7903 13M19.2993 11.3333V13.6666M19.2993 11.3333L12.6323 7.99999M15.7903 13L9.4742 9.99998M15.7903 13V19.3333M18.3013 7.25465L19.7049 7.95465C21.2144 8.70732 21.9696 9.08332 22.3892 9.75998C22.8082 10.436 22.8082 11.278 22.8082 12.96V13.038C22.8082 14.7213 22.8082 15.5633 22.3892 16.2393C21.9696 16.916 21.2144 17.2926 19.7049 18.0453L18.3013 18.7446C17.069 19.3593 16.4528 19.6666 15.7903 19.6666C15.1278 19.6666 14.5116 19.36 13.2793 18.7453L11.8757 18.0453C10.3662 17.2926 9.61104 16.9166 9.19137 16.24C8.77241 15.564 8.77241 14.722 8.77241 13.04V12.962C8.77241 11.2786 8.77241 10.4366 9.19137 9.76065C9.61104 9.08398 10.3662 8.70732 11.8757 7.95532L13.2793 7.25532C14.5116 6.64066 15.1278 6.33332 15.7903 6.33332C16.4528 6.33332 17.069 6.63999 18.3013 7.25465Z" stroke="white" stroke-width="1.5" stroke-linecap="round"/>
</g>
<defs>
<clipPath id="clip0_1_43">
<rect width="16.6188" height="15.787" fill="white" transform="translate(7.36884 5.00002) scale(1.01349)"/>
</clipPath>
</defs>
</svg>
