<svg width="35" height="34" viewBox="0 0 35 34" fill="none" xmlns="http://www.w3.org/2000/svg">
<path d="M30.625 26.9166V28.3333H4.375V26.9166L7.29167 24.0833V15.5833C7.29167 11.1916 10.2521 7.32409 14.5833 6.07742V5.66659C14.5833 4.91514 14.8906 4.19447 15.4376 3.66312C15.9846 3.13176 16.7265 2.83325 17.5 2.83325C18.2735 2.83325 19.0154 3.13176 19.5624 3.66312C20.1094 4.19447 20.4167 4.91514 20.4167 5.66659V6.07742C24.7479 7.32409 27.7083 11.1916 27.7083 15.5833V24.0833L30.625 26.9166ZM20.4167 29.7499C20.4167 30.5014 20.1094 31.222 19.5624 31.7534C19.0154 32.2847 18.2735 32.5833 17.5 32.5833C16.7265 32.5833 15.9846 32.2847 15.4376 31.7534C14.8906 31.222 14.5833 30.5014 14.5833 29.7499" fill="white"/>
</svg>
